<svg xmlns="http://www.w3.org/2000/svg" version="1.1" viewBox="-5.0 -10.0 110.0 135.0">
 <path d="m64.102 44.379s2.9375-3.7891 4.2031-7.2852c1.0898-3.0117 6.7891-8.7109 12.566-7.9219 2.1719 0.29688 4 1.9375 4.3008 4.1094 0.25 1.7969-0.18359 4.3516-2.6289 7.6523-5.3359 7.1992-14.047 10.352-14.047 10.352l-4.3984-6.9102z"/>
 <path d="m62.691 54.922c-1.2969 1.0039-6.3398 4.4766-8.7578 0.75-2.6133-4.0156 2.9023-6.75 4.5117-7.4414z"/>
 <path d="m64.137 27.383s3.7891-2.9375 7.2852-4.2031c3.0117-1.0898 8.7109-6.7891 7.9219-12.566-0.29688-2.1719-1.9375-4-4.1094-4.3008-1.7969-0.25-4.3516 0.18359-7.6523 2.6289-7.1992 5.3359-10.352 14.047-10.352 14.047l6.9102 4.3984z"/>
 <path d="m53.59 28.793c-1.0039 1.2969-4.4766 6.3398-0.75 8.7578 4.0156 2.6133 6.75-2.9023 7.4414-4.5117z"/>
 <path d="m29.727 78.75s2.9375-3.7891 4.2031-7.2852c1.0898-3.0117 6.7891-8.7109 12.566-7.9219 2.1719 0.29688 4 1.9375 4.3008 4.1094 0.25 1.7969-0.18359 4.3516-2.6289 7.6523-5.3359 7.1992-14.047 10.352-14.047 10.352l-4.3984-6.9102z"/>
 <path d="m28.32 89.297c-1.2969 1.0039-6.3398 4.4766-8.7578 0.75-2.6133-4.0156 2.9023-6.75 4.5117-7.4414z"/>
 <path d="m29.766 61.758s3.7891-2.9375 7.2852-4.2031c3.0117-1.0898 8.7109-6.7891 7.9219-12.566-0.29688-2.1719-1.9375-4-4.1094-4.3008-1.7969-0.25-4.3516 0.18359-7.6523 2.6289-7.1992 5.3359-10.352 14.047-10.352 14.047l6.9102 4.3984z"/>
 <path d="m19.219 63.164c-1.0039 1.2969-4.4766 6.3398-0.75 8.7578 4.0156 2.6133 6.75-2.9023 7.4414-4.5117z"/>
<text x="0.0" y="117.5" font-size="5.0" font-weight="bold" font-family="Arbeit Regular, Helvetica, Arial-Unicode, Arial, Sans-serif" fill="#000000">Created by Andi Nur Abdillah</text><text x="0.0" y="122.5" font-size="5.0" font-weight="bold" font-family="Arbeit Regular, Helvetica, Arial-Unicode, Arial, Sans-serif" fill="#000000">from Noun Project</text></svg>